<svg xmlns="http://www.w3.org/2000/svg" xmlns:xlink="http://www.w3.org/1999/xlink" x="0" y="0" width="200" height="200" viewBox="0 0 200 200">
<defs>
  <radialGradient id="gr1" fx="50%" fy="4%" r="50%" spreadMethod="pad">
      <stop offset="0%"   stop-color="#ffffff" stop-opacity="0.95"/>
      <stop offset="50%"  stop-color="#ffffff" stop-opacity="0.6"/>
      <stop offset="100%" stop-color="#ffffff" stop-opacity="0"/>
  </radialGradient>
  <radialGradient id="gr2" fx="50%" fy="40%" r="50%" spreadMethod="pad">
      <stop offset="0%"   stop-color="#ffffff" stop-opacity="0.8"/>
      <stop offset="100%" stop-color="#ffffff" stop-opacity="0"/>
  </radialGradient>
  <radialGradient id="gr3" fx="50%" fy="0%" r="60%" spreadMethod="pad">
      <stop offset="0%"   stop-color="#ffffff" stop-opacity="1"/>
      <stop offset="50%"  stop-color="#ffffff" stop-opacity="0.6"/>
      <stop offset="100%" stop-color="#ffffff" stop-opacity="0"/>
  </radialGradient>
  <linearGradient id="gr4" x1="0%" y1="0%" x2="0%" y2="100%" spreadMethod="pad">
    <stop offset="0%"   stop-color="#ffffff" stop-opacity="1"/>
    <stop offset="100%" stop-color="#ffffff" stop-opacity="0.0"/>
  </linearGradient>
</defs>
<!-- Dark rectangle. UNCOMMENT FOR TESTING ONLY -->
<!-- <rect x="0" y="0" height="200" width="800" style="fill: #666"/> -->
<path style="fill:url(#gr1);" transform="translate(1,-0.7)" d="M150.3,18.3C136.2,8.7,119,3.8,99,3.8S61.9,8.7,47.7,18.3c-14.1,9.9-21.2,21.6-21.2,35.5c0,13.8,7.1,25.5,21.2,35.3C61.9,98.8,79,103.8,99,103.8s37.2-5,51.3-14.7c14.101-9.8,21.2-21.5,21.2-35.3C171.5,39.9,164.4,28.2,150.3,18.3z"/>
</svg>